<?xml version="1.0" encoding="UTF-8"?>
<svg width="29px" height="29px" viewBox="0 0 29 29" version="1.1" xmlns="http://www.w3.org/2000/svg" xmlns:xlink="http://www.w3.org/1999/xlink">
    <!-- Generator: Sketch 57.1 (83088) - https://sketch.com -->
    <title>icon - github</title>
    <desc>Created with Sketch.</desc>
    <g id="Symbols" stroke="none" stroke-width="1" fill="none" fill-rule="evenodd">
        <g id="module---footer/desktop" transform="translate(-1231.000000, -795.000000)" fill="#FFFFFF">
            <g id="module---footer-v2">
                <g id="bottom-bar" transform="translate(0.000000, 780.000000)">
                    <g id="social-icons" transform="translate(1146.000000, 15.000000)">
                        <g id="icon---github" transform="translate(85.000000, 0.000000)">
                            <g transform="translate(0.000000, 0.000000)" id="Combined-Shape">
                                <path d="M12.5338023,28.8669061 C13.7067812,28.9214073 14.6868185,28.9547308 15.4739143,28.9668766 C15.1520496,28.9891563 14.8272911,29 14.5,29 C13.8677793,29 13.2450089,28.9595382 12.6341372,28.8810629 Z M14.5,3.55271368e-15 C22.5081293,3.55271368e-15 29,6.49187073 29,14.5 C29,21.3433235 24.2593068,27.0793981 17.8828695,28.6032746 L17.882103,23.6132494 C17.882103,22.2520091 17.4242545,21.3618297 16.9101636,20.9113666 C20.0992848,20.5504588 23.4465879,19.3172826 23.4465879,13.7129132 C23.4465879,12.1206203 22.8920727,10.8184865 21.9746182,9.79845187 C22.1222545,9.42948412 22.613497,7.94644867 21.8322545,5.93772374 C21.8322545,5.93772374 20.6327091,5.54547161 17.8996788,7.43329692 C16.7563758,7.1091068 15.5313455,6.9479073 14.3159818,6.94163843 C13.0988606,6.9479073 11.8738303,7.1091068 10.7322848,7.43329692 C7.99749697,5.54547161 6.79531515,5.93772374 6.79531515,5.93772374 C6.01670909,7.94644867 6.50795152,9.42948412 6.65558788,9.79845187 C5.73989091,10.8184865 5.18186061,12.1206203 5.18186061,13.7129132 C5.18186061,19.3029538 8.52389091,20.5549366 11.7024667,20.9230088 C11.2929515,21.2874988 10.9238606,21.9305057 10.7938,22.8735228 C9.97740606,23.2460728 7.90434545,23.8899752 6.62746667,21.6609443 C6.62746667,21.6609443 5.87170909,20.2611953 4.43489091,20.1573111 C4.43489091,20.1573111 3.03673939,20.1394001 4.33646667,21.044804 C4.33646667,21.044804 5.27501212,21.4925804 5.92619394,23.1780107 C5.92619394,23.1780107 6.76631515,26.015122 10.748103,25.1338981 C10.7527899,25.9452689 10.7592343,27.159593 10.7674364,28.7768704 L10.7664122,28.5147862 C4.56763457,26.8676807 0,21.2172548 0,14.5 C0,6.49187073 6.49187073,3.55271368e-15 14.5,3.55271368e-15 Z"></path>
                            </g>
                        </g>
                    </g>
                </g>
            </g>
        </g>
    </g>
</svg>