<?xml version="1.0" encoding="UTF-8"?>
<svg width="29px" height="29px" viewBox="0 0 29 29" version="1.1" xmlns="http://www.w3.org/2000/svg" xmlns:xlink="http://www.w3.org/1999/xlink">
    <!-- Generator: Sketch 57.1 (83088) - https://sketch.com -->
    <title>icon - linkedin</title>
    <desc>Created with Sketch.</desc>
    <g id="Symbols" stroke="none" stroke-width="1" fill="none" fill-rule="evenodd">
        <g id="module---footer/desktop" transform="translate(-1146.000000, -795.000000)" fill="#FFFFFF">
            <g id="module---footer-v2">
                <g id="bottom-bar" transform="translate(0.000000, 780.000000)">
                    <g id="social-icons" transform="translate(1146.000000, 15.000000)">
                        <g id="icon---LinkedIN">
                            <g id="Combined-Shape">
                                <path d="M14.5,3.55271368e-15 C22.5081293,3.55271368e-15 29,6.49187073 29,14.5 C29,22.5081293 22.5081293,29 14.5,29 C6.49187073,29 0,22.5081293 0,14.5 C0,6.49187073 6.49187073,3.55271368e-15 14.5,3.55271368e-15 Z M10.8732638,11.9309699 L7.6370349,11.9309699 L7.6370349,21.6422328 L10.8732638,21.6422328 L10.8732638,11.9309699 Z M18.8182272,11.7029306 C17.1000026,11.7029306 16.3307244,12.6455101 15.9012006,13.3067466 L15.9012006,11.9312277 L12.6645839,11.9312277 C12.7072389,12.8424824 12.6645839,21.6424906 12.6645839,21.6424906 L15.9012006,21.6424906 L15.9012006,16.2189202 C15.9012006,15.9286826 15.922205,15.6391539 16.0077737,15.4313533 C16.2416658,14.8515225 16.7742081,14.2511953 17.6682847,14.2511953 C18.8398133,14.2511953 19.3081145,15.1416957 19.3081145,16.4467017 L19.3081145,21.6422328 L22.5442142,21.6422328 L22.5443435,16.0740914 C22.5443435,13.0912115 20.9478151,11.7029306 18.8182272,11.7029306 Z M9.27654155,7.24946166 C8.16944801,7.24946166 7.44566864,7.9747013 7.44566864,8.92688448 C7.44566864,9.85934465 8.14805583,10.6054675 9.23453275,10.6054675 L9.255214,10.6054675 C10.3836351,10.6054675 11.0864101,9.85934465 11.0864101,8.92688448 C11.0654057,7.9747013 10.3836351,7.24946166 9.27654155,7.24946166 Z"></path>
                            </g>
                        </g>
                    </g>
                </g>
            </g>
        </g>
    </g>
</svg>