<?xml version="1.0" encoding="UTF-8"?>
<svg width="30px" height="29px" viewBox="0 0 30 29" version="1.1" xmlns="http://www.w3.org/2000/svg" xmlns:xlink="http://www.w3.org/1999/xlink">
    <!-- Generator: Sketch 57.1 (83088) - https://sketch.com -->
    <title>icon - twitter</title>
    <desc>Created with Sketch.</desc>
    <g id="Symbols" stroke="none" stroke-width="1" fill="none" fill-rule="evenodd">
        <g id="module---footer/desktop" transform="translate(-1188.000000, -795.000000)" fill="#FFFFFF">
            <g id="module---footer-v2">
                <g id="bottom-bar" transform="translate(0.000000, 780.000000)">
                    <g id="social-icons" transform="translate(1146.000000, 15.000000)">
                        <g id="icon---Twitter" transform="translate(42.333333, 0.000000)">
                            <g id="Combined-Shape">
                                <path d="M14.5,3.55271368e-15 C22.5081293,3.55271368e-15 29,6.49187073 29,14.5 C29,22.5081293 22.5081293,29 14.5,29 C6.49187073,29 0,22.5081293 0,14.5 C0,6.49187073 6.49187073,3.55271368e-15 14.5,3.55271368e-15 Z M16.5693604,8.70276085 C15.3207633,9.1559821 14.5316499,10.3242858 14.6215489,11.6033769 L14.6515152,12.0968844 L14.1520764,12.0364549 C12.334119,11.8048085 10.7459035,11.019225 9.39741865,9.6998476 L8.73815938,9.04519468 L8.56835018,9.52863068 C8.20875421,10.6062901 8.43849608,11.744379 9.18765434,12.5098194 C9.58720541,12.9328259 9.49730642,12.9932554 8.80808082,12.7414658 C8.56835018,12.6608931 8.35858586,12.6004636 8.33860831,12.6306784 C8.26868687,12.7011795 8.50841752,13.6176935 8.69820428,13.9802705 C8.95791247,14.4838497 9.48731764,14.9773573 10.0666667,15.2694332 L10.5561168,15.5010796 L9.9767677,15.5111512 C9.4173962,15.5111512 9.39741865,15.5212228 9.45735131,15.7327261 C9.65712685,16.387379 10.4462402,17.0823182 11.3252526,17.3844657 L11.9445567,17.595969 L11.4051628,17.9182596 C10.6060606,18.3815525 9.66711562,18.6434137 8.72817061,18.6635568 C8.27867565,18.6736284 7.90909091,18.7139147 7.90909091,18.7441295 C7.90909091,18.8448453 9.12772168,19.408854 9.83692483,19.6304288 C11.9645343,20.2850817 14.4916948,20.0030774 16.3895624,18.8851317 C17.7380473,18.0894766 19.0865321,16.508238 19.7158251,14.9773573 C20.0554435,14.161559 20.3950619,12.6709647 20.3950619,11.9558823 C20.3950619,11.4925894 20.4250282,11.4321599 20.9843997,10.8782229 C21.3140294,10.5559322 21.6236814,10.2034268 21.6836141,10.1027109 C21.7835019,9.91135085 21.7735131,9.91135085 21.2640855,10.0825678 C20.4150394,10.3847153 20.2951741,10.3444289 20.7147027,9.89120769 C21.0243548,9.56891702 21.3939396,8.98476518 21.3939396,8.81354826 C21.3939396,8.78333351 21.2441079,8.83369143 21.0742987,8.92433568 C20.8945007,9.02505151 20.4949497,9.17612527 20.1952864,9.26676952 L19.6558924,9.43798643 L19.1664423,9.10562418 C18.8967454,8.92433568 18.5171719,8.72290401 18.3173963,8.66247451 C17.8079687,8.52147234 17.0288441,8.54161551 16.5693604,8.70276085 Z"></path>
                            </g>
                        </g>
                    </g>
                </g>
            </g>
        </g>
    </g>
</svg>